<svg id="bold" enable-background="new 0 0 24 24" height="512" viewBox="0 0 24 24" width="512" xmlns="http://www.w3.org/2000/svg"><g><path d="m22.25 19h-3c-.414 0-.75-.336-.75-.75v-12.5c0-.414.336-.75.75-.75h3c.414 0 .75.336.75.75v12.5c0 .414-.336.75-.75.75z"/></g><g><path d="m16.25 19h-3c-.414 0-.75-.336-.75-.75v-10.5c0-.414.336-.75.75-.75h3c.414 0 .75.336.75.75v10.5c0 .414-.336.75-.75.75z"/></g><g><path d="m10.25 19h-3c-.414 0-.75-.336-.75-.75v-7.5c0-.414.336-.75.75-.75h3c.414 0 .75.336.75.75v7.5c0 .414-.336.75-.75.75z"/></g><g><path d="m4.25 19h-3c-.414 0-.75-.336-.75-.75v-4.5c0-.414.336-.75.75-.75h3c.414 0 .75.336.75.75v4.5c0 .414-.336.75-.75.75z"/></g></svg>