<svg xmlns="http://www.w3.org/2000/svg" width="167.554" height="167.554" viewBox="0 0 167.554 167.554">
  <g id="Groupe_2922" data-name="Groupe 2922" transform="translate(-10.664 43.689) rotate(-22)">
    <circle id="Ellipse_4" data-name="Ellipse 4" cx="63.892" cy="63.892" r="63.892" transform="translate(-17.81 72.547) rotate(-45)" fill="#f5f5f5"/>
    <g id="Groupe_2921" data-name="Groupe 2921" transform="translate(30.438 19.949)">
      <g id="Groupe_2918" data-name="Groupe 2918" transform="translate(0 22.863)">
        <path id="Tracé_8577" data-name="Tracé 8577" d="M151.725,128.451a17.327,17.327,0,1,0,34.286,5.04c1.391-9.468-5.155-11.192-14.624-12.584S153.115,118.983,151.725,128.451Z" transform="translate(-125.364 -120.133)" fill="#e8e8e8"/>
        <g id="Groupe_2901" data-name="Groupe 2901" transform="translate(0 33.293)">
          <g id="Groupe_2899" data-name="Groupe 2899">
            <path id="Tracé_8578" data-name="Tracé 8578" d="M92.047,201.274a6.3,6.3,0,1,0,7.146-5.316A6.3,6.3,0,0,0,92.047,201.274Z" transform="translate(-91.979 -195.891)" fill="#fbb990"/>
            <path id="Tracé_8579" data-name="Tracé 8579" d="M102.63,202.844a3.258,3.258,0,0,0-.948,6.447" transform="translate(-95.858 -199.769)" fill="none" stroke="#d2d1d1" stroke-linecap="round" stroke-linejoin="round" stroke-width="2.255" style="mix-blend-mode: multiply;isolation: isolate"/>
          </g>
          <g id="Groupe_2900" data-name="Groupe 2900" transform="translate(67.054 9.856)">
            <path id="Tracé_8580" data-name="Tracé 8580" d="M257.089,225.533a6.3,6.3,0,1,1-5.315-7.146A6.3,6.3,0,0,1,257.089,225.533Z" transform="translate(-244.561 -218.319)" fill="#fbb990"/>
            <path id="Tracé_8581" data-name="Tracé 8581" d="M258.76,225.318a3.257,3.257,0,0,1-.947,6.446" transform="translate(-251.989 -222.242)" fill="none" stroke="#d2d1d1" stroke-linecap="round" stroke-linejoin="round" stroke-width="2.255" style="mix-blend-mode: multiply;isolation: isolate"/>
          </g>
        </g>
        <path id="Tracé_8582" data-name="Tracé 8582" d="M105.866,173.321c-3.206,21.8,13.506,36.207,28.573,38.421a33.858,33.858,0,1,0-28.573-38.421Z" transform="translate(-99.539 -133.725)" fill="#fbb990"/>
        <g id="Groupe_2902" data-name="Groupe 2902" transform="translate(6.764 10.655)">
          <path id="Tracé_8583" data-name="Tracé 8583" d="M135.614,145.133c-.018.288-1.959,29.827-28.243,25.971A33.87,33.87,0,0,1,135.614,145.133Z" transform="translate(-107.371 -144.802)" fill="#fff"/>
          <path id="Tracé_8584" data-name="Tracé 8584" d="M185.241,176.85c-38.614-5.679-57.952-21.777-58.261-22.037a33.85,33.85,0,0,1,58.261,22.037Z" transform="translate(-118.363 -144.379)" fill="#fff"/>
        </g>
        <g id="Groupe_2908" data-name="Groupe 2908" transform="translate(12.785 32.688)">
          <g id="Groupe_2907" data-name="Groupe 2907">
            <g id="Groupe_2904" data-name="Groupe 2904">
              <g id="Groupe_2903" data-name="Groupe 2903">
                <path id="Tracé_8585" data-name="Tracé 8585" d="M133.4,196.662a10.2,10.2,0,1,1-10.077,8.714,10.267,10.267,0,0,1,10.077-8.714m0-2.146a12.345,12.345,0,1,0,1.807.132,12.409,12.409,0,0,0-1.807-.132Z" transform="translate(-121.072 -194.516)" fill="#45140d"/>
              </g>
            </g>
            <g id="Groupe_2906" data-name="Groupe 2906" transform="translate(28.625 4.207)">
              <g id="Groupe_2905" data-name="Groupe 2905">
                <path id="Tracé_8586" data-name="Tracé 8586" d="M198.538,206.235a10.2,10.2,0,1,1-10.075,8.714,10.274,10.274,0,0,1,10.075-8.714m0-2.147a12.344,12.344,0,1,0,12.222,14.138,12.342,12.342,0,0,0-10.415-14,12.41,12.41,0,0,0-1.807-.133Z" transform="translate(-186.207 -204.088)" fill="#45140d"/>
              </g>
            </g>
          </g>
          <line id="Ligne_2" data-name="Ligne 2" x1="6.845" y1="1.006" transform="translate(23.059 15.123)" fill="none" stroke="#45140d" stroke-miterlimit="10" stroke-width="4.884"/>
        </g>
        <g id="Groupe_2913" data-name="Groupe 2913" transform="translate(20.691 42.082)">
          <g id="Groupe_2910" data-name="Groupe 2910">
            <g id="Groupe_2909" data-name="Groupe 2909">
              <path id="Tracé_8587" data-name="Tracé 8587" d="M146.66,221.225a4.707,4.707,0,0,0-1.333-2.356,3.768,3.768,0,0,0-1.991-.971l-.185-.025-.117-.01c-.089-.006-.183-.007-.275-.007a3.285,3.285,0,0,0-.555.044,3.881,3.881,0,0,0-1.1.35,4.733,4.733,0,0,0-1.956,1.871A3.3,3.3,0,0,1,140.171,217a4.021,4.021,0,0,1,1.574-.922,4.4,4.4,0,0,1,.918-.176c.157-.011.311-.011.471-.007l.255.017.185.02a4.117,4.117,0,0,1,3,2.012A3.3,3.3,0,0,1,146.66,221.225Z" transform="translate(-139.061 -215.891)" fill="#45140d"/>
            </g>
          </g>
          <g id="Groupe_2912" data-name="Groupe 2912" transform="translate(29.261 4.301)">
            <g id="Groupe_2911" data-name="Groupe 2911">
              <path id="Tracé_8588" data-name="Tracé 8588" d="M213.246,231.012a4.714,4.714,0,0,0-1.333-2.356,3.759,3.759,0,0,0-1.991-.971l-.185-.025-.117-.011c-.088-.006-.183-.007-.275-.007a3.334,3.334,0,0,0-.555.044,3.887,3.887,0,0,0-1.1.35,4.73,4.73,0,0,0-1.956,1.87,3.3,3.3,0,0,1,1.027-3.121,4.006,4.006,0,0,1,1.574-.922,4.354,4.354,0,0,1,.918-.176c.157-.011.311-.012.471-.007l.255.017.185.019a4.113,4.113,0,0,1,3,2.012A3.3,3.3,0,0,1,213.246,231.012Z" transform="translate(-205.646 -225.678)" fill="#45140d"/>
            </g>
          </g>
        </g>
        <g id="Groupe_2914" data-name="Groupe 2914" transform="translate(35.051 54.985)" style="mix-blend-mode: multiply;isolation: isolate">
          <path id="Tracé_8589" data-name="Tracé 8589" d="M177.341,248.611a2.834,2.834,0,1,0-5.6-.824" transform="translate(-171.738 -245.252)" fill="none" stroke="#d2d1d1" stroke-linecap="round" stroke-linejoin="round" stroke-width="1.51"/>
        </g>
        <g id="Groupe_2916" data-name="Groupe 2916" transform="translate(0.791 42.422)">
          <g id="Groupe_2915" data-name="Groupe 2915">
            <path id="Tracé_8590" data-name="Tracé 8590" d="M93.8,218.546a2.2,2.2,0,1,0,2.5-1.857A2.2,2.2,0,0,0,93.8,218.546Z" transform="translate(-93.778 -216.665)" fill="#004860"/>
            <path id="Tracé_8591" data-name="Tracé 8591" d="M257.814,242.652a2.2,2.2,0,1,0,2.5-1.858A2.2,2.2,0,0,0,257.814,242.652Z" transform="translate(-185.713 -230.177)" fill="#004860"/>
          </g>
        </g>
        <g id="Groupe_2917" data-name="Groupe 2917" transform="translate(26.273 61.61)">
          <path id="Tracé_8592" data-name="Tracé 8592" d="M173.982,263.594s-5.013,9.905-12.844,8.755c-6.5-.956-8.877-7.34-9.375-12.022a16.46,16.46,0,0,0,10.112,5.31C165.118,266.114,170.856,265.482,173.982,263.594Z" transform="translate(-151.764 -260.327)" fill="#45140d"/>
          <path id="Tracé_8593" data-name="Tracé 8593" d="M161.557,267.8a17.053,17.053,0,0,1-9.2-4.352,20.025,20.025,0,0,1-.593-3.123,16.46,16.46,0,0,0,10.112,5.31c3.241.477,8.979-.155,12.106-2.044a21.889,21.889,0,0,1-1.893,2.928A23.381,23.381,0,0,1,161.557,267.8Z" transform="translate(-151.764 -260.327)" fill="#fff"/>
          <path id="Tracé_8594" data-name="Tracé 8594" d="M166.2,279.279a8.718,8.718,0,0,1,5.385,2.582,9,9,0,0,1-5.582,1.035,9.4,9.4,0,0,1-5.515-2.818A8.99,8.99,0,0,1,166.2,279.279Z" transform="translate(-156.657 -270.878)" fill="#e34355"/>
        </g>
      </g>
      <g id="Groupe_2920" data-name="Groupe 2920" transform="translate(21.854)">
        <path id="Tracé_8595" data-name="Tracé 8595" d="M201.971,85.68c-.11,0-9.164,11.975-16.675,9.66-12.01-3.438-10.07-17.514-10.046-17.641-.082.057-5.843,13.542-15.526,12.383-9.265-.95-12.116-15.4-12.189-15.47-.165,7.79-.657,17.19-.822,24.979-.043,1.975-.93,8.11-.971,10.085a126.425,126.425,0,0,1,44.19,8.986c.734-1.835,2.31-7.83,3.043-9.663C195.867,101.762,199.083,92.917,201.971,85.68Z" transform="translate(-143.97 -71.754)" fill="#ffb200"/>
        <g id="Groupe_2919" data-name="Groupe 2919">
          <path id="Tracé_8596" data-name="Tracé 8596" d="M148.451,71.477a3.8,3.8,0,0,1-3.572,3.476,3.059,3.059,0,0,1-3.168-3.276,3.78,3.78,0,0,1,3.582-3.566A3.041,3.041,0,0,1,148.451,71.477Z" transform="translate(-141.708 -68.109)" fill="#f68700"/>
          <path id="Tracé_8597" data-name="Tracé 8597" d="M211.76,78.977a3.324,3.324,0,1,1-2.61-3.844A3.277,3.277,0,0,1,211.76,78.977Z" transform="translate(-177.296 -72.007)" fill="#f68700"/>
          <path id="Tracé_8598" data-name="Tracé 8598" d="M272.38,98.417a3.1,3.1,0,0,1-4.236,1.691,3.7,3.7,0,0,1-2-4.479,3.077,3.077,0,0,1,4.264-1.775A3.672,3.672,0,0,1,272.38,98.417Z" transform="translate(-211.356 -82.372)" fill="#f68700"/>
        </g>
        <path id="Tracé_8599" data-name="Tracé 8599" d="M192.976,140.86a132.336,132.336,0,0,0-46.261-9.408c-.043,1.975-.93,8.11-.971,10.085a126.425,126.425,0,0,1,44.19,8.986C190.667,148.688,192.243,142.693,192.976,140.86Z" transform="translate(-143.97 -103.615)" fill="#f68700"/>
      </g>
    </g>
  </g>
</svg>
